<svg width="180" height="38" viewBox="0 0 180 38" fill="none" xmlns="http://www.w3.org/2000/svg">
<path d="M13.1594 38C10.8708 38 8.68494 37.736 6.6017 37.208C4.54783 36.6799 2.78739 35.9023 1.32034 34.8754L4.35714 29.0217C5.35473 29.8138 6.58706 30.4303 8.05409 30.8703C9.55048 31.3395 11.0029 31.5743 12.4113 31.5743C14.6705 31.5743 16.2989 31.0755 17.2965 30.0778C18.2941 29.1097 18.7929 27.6867 18.7929 25.8089V22.9922L19.233 16.3024L19.189 9.56866V5.2115H27.1551V24.7086C27.1551 29.227 25.9374 32.572 23.5021 34.7434C21.0668 36.9143 17.6193 38 13.1594 38ZM11.707 27.8334C9.59449 27.8334 7.64334 27.364 5.85353 26.4251C4.09308 25.4568 2.67003 24.1218 1.58441 22.42C0.528135 20.6889 0 18.6497 0 16.3024C0 13.9551 0.528135 11.9306 1.58441 10.2288C2.67003 8.4977 4.09308 7.16268 5.85353 6.22377C7.64334 5.28486 9.59449 4.81543 11.707 4.81543C13.7316 4.81543 15.4627 5.22618 16.9004 6.04772C18.3381 6.83994 19.4237 8.08695 20.1573 9.78872C20.9201 11.4905 21.3016 13.6617 21.3016 16.3024C21.3016 18.9431 20.9201 21.1144 20.1573 22.8161C19.4237 24.5179 18.3381 25.7795 16.9004 26.6011C15.4627 27.4227 13.7316 27.8334 11.707 27.8334ZM13.6876 21.1877C14.6852 21.1877 15.5654 20.9823 16.3283 20.5715C17.1205 20.1608 17.7366 19.5886 18.1768 18.8551C18.6462 18.1216 18.8809 17.2707 18.8809 16.3024C18.8809 15.3342 18.6462 14.4833 18.1768 13.7497C17.7366 13.0162 17.1205 12.4588 16.3283 12.0773C15.5654 11.6665 14.6852 11.4612 13.6876 11.4612C12.69 11.4612 11.7951 11.6665 11.0029 12.0773C10.2107 12.4588 9.57985 13.0162 9.11037 13.7497C8.67026 14.4833 8.4502 15.3342 8.4502 16.3024C8.4502 17.2707 8.67026 18.1216 9.11037 18.8551C9.57985 19.5886 10.2107 20.1608 11.0029 20.5715C11.7951 20.9823 12.69 21.1877 13.6876 21.1877Z" fill="black"/>
<path d="M40.8597 5.7876C42.5516 5.7876 44.1509 6.10483 45.6577 6.73926C47.1645 7.34728 48.473 8.17997 49.5834 9.23735C50.6938 10.2947 51.566 11.5504 52.2006 13.0043C52.8614 14.4318 53.1917 15.9518 53.1917 17.5643C53.1917 19.2033 52.8614 20.7365 52.2006 22.164C51.566 23.5914 50.6938 24.8471 49.5834 25.9309C48.473 26.9883 47.1645 27.821 45.6577 28.429C44.1509 29.0369 42.5516 29.3409 40.8597 29.3409C39.1416 29.3409 37.5291 29.0369 36.0223 28.429C34.542 27.821 33.2467 26.9883 32.1364 25.9309C31.0261 24.8471 30.1406 23.5914 29.4797 22.164C28.8453 20.7365 28.5281 19.2033 28.5281 17.5643C28.5281 15.9518 28.8453 14.4318 29.4797 13.0043C30.1406 11.5504 31.0261 10.2947 32.1364 9.23735C33.2467 8.17997 34.542 7.34728 36.0223 6.73926C37.5291 6.10483 39.1416 5.7876 40.8597 5.7876ZM45.5783 17.5246C45.5783 16.9167 45.4595 16.3483 45.2218 15.8196C44.9836 15.2645 44.6534 14.7886 44.2302 14.3921C43.8075 13.9956 43.3049 13.6784 42.7235 13.4405C42.1683 13.2026 41.5736 13.0836 40.9391 13.0836C40.3049 13.0836 39.6967 13.2026 39.1152 13.4405C38.5601 13.6784 38.071 13.9956 37.6481 14.3921C37.2515 14.7886 36.9211 15.2645 36.6568 15.8196C36.4188 16.3483 36.2999 16.9167 36.2999 17.5246C36.2999 18.1327 36.4188 18.7142 36.6568 19.2693C36.9211 19.798 37.2515 20.2606 37.6481 20.6572C38.071 21.0537 38.5601 21.3709 39.1152 21.6088C39.6967 21.8467 40.3049 21.9657 40.9391 21.9657C41.5736 21.9657 42.1683 21.8467 42.7235 21.6088C43.3049 21.3709 43.8075 21.0537 44.2302 20.6572C44.6534 20.2606 44.9836 19.798 45.2218 19.2693C45.4595 18.7142 45.5783 18.1327 45.5783 17.5246Z" fill="black"/>
<path d="M83.6286 11.7751V29.0633L75.8174 29.0238V28.1911C74.5746 28.6668 73.2928 28.9708 71.971 29.1032C70.6493 29.2615 69.3276 29.2352 68.0058 29.0238C66.7104 28.8124 65.4417 28.429 64.199 27.8739C62.9833 27.2923 61.8466 26.5257 60.7889 25.5741C59.2821 24.2523 58.1191 22.7191 57.2995 20.9744C56.4803 19.2033 56.0045 17.3925 55.8721 15.5421C55.7664 13.6652 56.0177 11.8148 56.6255 9.99077C57.2337 8.14034 58.1985 6.46172 59.5202 4.95493C60.7889 3.52746 62.3356 2.40399 64.1595 1.5845C66.0101 0.765017 67.9396 0.262765 69.9485 0.0777053C71.9842 -0.107313 73.98 0.0380612 75.9362 0.513911C77.9189 0.989719 79.6633 1.8092 81.1701 2.97232L75.738 9.07875C74.7864 8.49721 73.7949 8.14034 72.7639 8.00816C71.7329 7.84955 70.755 7.86275 69.8297 8.04781C68.9044 8.20642 68.0585 8.49721 67.2919 8.92014C66.5517 9.31666 65.9969 9.79251 65.6268 10.3476C65.1242 11.0614 64.741 11.828 64.4765 12.6474C64.2388 13.4669 64.1332 14.2864 64.1595 15.1059C64.1858 15.9254 64.3577 16.7184 64.6752 17.485C65.0186 18.2252 65.5343 18.886 66.2215 19.4676C66.8823 20.0756 67.6094 20.5118 68.4023 20.7762C69.2219 21.0405 70.0411 21.1462 70.8607 21.0933C71.7066 21.0141 72.5131 20.8026 73.2796 20.4589C74.0725 20.0888 74.7728 19.5602 75.3811 18.8728L75.5398 18.6746H71.8522L73.3191 11.7355L83.6286 11.7751Z" fill="black"/>
<path d="M97.2818 21.807V28.9443H85.0292V6.18408H92.4838V21.807H97.2818Z" fill="black"/>
<path d="M109.167 5.7876C110.859 5.7876 112.458 6.10483 113.965 6.73926C115.472 7.34728 116.78 8.17997 117.89 9.23735C119 10.2947 119.873 11.5504 120.507 13.0043C121.168 14.4318 121.499 15.9518 121.499 17.5643C121.499 19.2033 121.168 20.7365 120.507 22.164C119.873 23.5914 119 24.8471 117.89 25.9309C116.78 26.9883 115.472 27.821 113.965 28.429C112.458 29.0369 110.859 29.3409 109.167 29.3409C107.449 29.3409 105.836 29.0369 104.329 28.429C102.849 27.821 101.553 26.9883 100.443 25.9309C99.3331 24.8471 98.4477 23.5914 97.7868 22.164C97.1523 20.7365 96.8352 19.2033 96.8352 17.5643C96.8352 15.9518 97.1523 14.4318 97.7868 13.0043C98.4477 11.5504 99.3331 10.2947 100.443 9.23735C101.553 8.17997 102.849 7.34728 104.329 6.73926C105.836 6.10483 107.449 5.7876 109.167 5.7876ZM113.885 17.5246C113.885 16.9167 113.767 16.3483 113.528 15.8196C113.291 15.2645 112.96 14.7886 112.537 14.3921C112.114 13.9956 111.612 13.6784 111.031 13.4405C110.475 13.2026 109.881 13.0836 109.246 13.0836C108.612 13.0836 108.004 13.2026 107.422 13.4405C106.867 13.6784 106.378 13.9956 105.955 14.3921C105.559 14.7886 105.228 15.2645 104.964 15.8196C104.726 16.3483 104.607 16.9167 104.607 17.5246C104.607 18.1327 104.726 18.7142 104.964 19.2693C105.228 19.798 105.559 20.2606 105.955 20.6572C106.378 21.0537 106.867 21.3709 107.422 21.6088C108.004 21.8467 108.612 21.9657 109.246 21.9657C109.881 21.9657 110.475 21.8467 111.031 21.6088C111.612 21.3709 112.114 21.0537 112.537 20.6572C112.96 20.2606 113.291 19.798 113.528 19.2693C113.767 18.7142 113.885 18.1327 113.885 17.5246Z" fill="black"/>
<path d="M145.036 23.988C144.745 24.3846 144.402 24.8075 144.005 25.2569C143.609 25.6798 143.305 25.9838 143.093 26.1689C141.904 27.1206 140.582 27.8607 139.128 28.3894C137.7 28.8919 136.233 29.1427 134.727 29.1427C133.061 29.1427 131.409 28.8125 129.77 28.1515C128.157 27.4642 126.73 26.5125 125.488 25.2966C124.43 24.1863 123.624 22.9703 123.069 21.6485C122.54 20.3004 122.276 18.9258 122.276 17.5247C122.276 15.9386 122.619 14.4054 123.307 12.9251C123.994 11.4183 125.012 10.0966 126.36 8.95988C127.576 7.98178 128.885 7.24162 130.286 6.73933C131.713 6.21064 133.167 5.94629 134.647 5.94629C136.365 5.94629 138.057 6.30317 139.723 7.01692C141.415 7.73063 142.935 8.78802 144.283 10.1891L138.652 14.868C138.044 14.26 137.396 13.8107 136.709 13.5199C136.022 13.2026 135.335 13.044 134.647 13.044C133.484 13.044 132.4 13.4405 131.396 14.2336C130.893 14.6565 130.51 15.1588 130.246 15.7404C129.981 16.322 129.849 16.9167 129.849 17.5247C129.849 18.0534 129.942 18.5821 130.127 19.1108C130.338 19.6395 130.669 20.1285 131.118 20.578C131.621 21.1066 132.176 21.5032 132.784 21.7675C133.418 22.0054 134.066 22.1244 134.727 22.1244C135.308 22.1244 135.877 22.0319 136.432 21.8468C136.987 21.6617 137.502 21.3578 137.978 20.9348C138.11 20.8555 138.269 20.6969 138.454 20.459C138.665 20.2211 138.811 20.036 138.89 19.9038L145.036 23.988Z" fill="black"/>
<path d="M159.501 6.18408L166.836 28.9443H159.302L158.589 26.3274H152.284L151.57 28.9443H144.036L151.372 6.18408H159.501ZM156.685 19.9037L155.456 15.0265L154.187 19.9037H156.685Z" fill="black"/>
<path d="M179.994 21.807V28.9443H167.741V6.18408H175.196V21.807H179.994Z" fill="black"/>
</svg>